<?xml version="1.0" standalone="no"?>
<!DOCTYPE svg PUBLIC "-//W3C//DTD SVG 20010904//EN"
 "http://www.w3.org/TR/2001/REC-SVG-20010904/DTD/svg10.dtd">
<svg version="1.0" xmlns="http://www.w3.org/2000/svg"
 width="528.000000pt" height="528.000000pt" viewBox="0 0 528.000000 528.000000"
 preserveAspectRatio="xMidYMid meet">
<metadata>
Created by potrace 1.14, written by Peter Selinger 2001-2017
</metadata>
<g transform="translate(0.000000,528.000000) scale(0.100000,-0.100000)"
fill="#000000" stroke="none">
<path d="M2597 5104 c-1 -1 -56 -4 -122 -8 -123 -7 -146 -9 -250 -28 -33 -5
-73 -12 -90 -15 -16 -2 -37 -6 -45 -9 -8 -3 -24 -8 -36 -10 -52 -10 -276 -80
-329 -103 -11 -5 -42 -18 -70 -29 -27 -11 -88 -40 -135 -65 -257 -132 -430
-258 -631 -457 -106 -106 -259 -288 -259 -309 0 -6 -4 -11 -10 -11 -13 0 -41
-56 -32 -65 4 -3 1 -5 -6 -3 -7 1 -25 -18 -40 -44 -15 -25 -42 -71 -59 -102
-18 -31 -33 -60 -33 -65 0 -5 -3 -11 -8 -13 -11 -4 -86 -171 -118 -259 -14
-41 -29 -81 -32 -89 -3 -8 -6 -17 -7 -20 0 -3 -7 -22 -14 -43 -7 -21 -10 -45
-7 -53 3 -8 2 -13 -3 -10 -11 7 -48 -136 -55 -214 -2 -19 -6 -42 -9 -50 -37
-105 -38 -616 -1 -782 4 -18 8 -44 10 -58 7 -53 12 -76 24 -120 7 -25 12 -46
12 -47 -1 -4 28 -106 35 -123 4 -8 12 -33 19 -55 58 -193 275 -608 307 -588 6
3 7 1 3 -5 -9 -14 23 -64 35 -56 5 3 8 2 7 -3 -2 -9 19 -50 36 -70 6 -7 27
-31 46 -54 64 -76 114 -130 175 -189 92 -90 113 -107 295 -250 14 -11 30 -20
37 -20 6 0 13 -4 15 -9 6 -17 167 -112 308 -181 147 -73 440 -177 460 -165 5
3 11 1 14 -4 6 -9 71 -23 116 -26 14 0 30 -4 35 -7 12 -7 132 -26 225 -35 86
-8 337 -8 425 0 152 14 175 17 198 26 14 6 27 8 29 5 5 -4 162 29 213 45 17 5
65 19 107 32 44 13 74 27 71 32 -3 6 -1 7 4 4 19 -12 122 29 308 123 148 76
217 119 209 131 -3 5 1 6 8 4 17 -7 80 39 70 50 -4 5 -2 5 4 2 12 -7 55 22
125 85 10 10 21 18 24 18 17 0 253 232 313 307 19 23 41 51 50 62 46 54 52 62
52 71 0 6 3 10 8 10 4 0 20 21 37 48 16 26 32 49 35 52 13 11 51 80 44 80 -4
0 0 6 9 13 20 14 168 307 161 318 -2 4 0 9 5 11 5 1 11 12 13 23 1 11 5 22 8
25 3 3 16 39 29 80 12 41 27 86 32 99 10 24 47 175 55 221 2 14 7 41 10 60 9
49 13 78 19 130 3 25 7 65 10 90 7 54 7 314 1 385 -8 94 -23 198 -42 300 -30
167 -107 396 -189 570 -37 78 -142 265 -155 275 -3 3 -21 29 -39 57 -18 30
-38 50 -44 46 -6 -3 -7 -1 -3 6 8 12 -41 78 -54 74 -4 -1 -7 4 -6 11 2 21
-168 206 -290 316 -54 49 -173 143 -209 166 -16 10 -32 21 -35 24 -11 12 -139
91 -215 132 -68 37 -127 65 -250 118 -57 25 -95 38 -95 33 0 -3 -6 -1 -12 4
-12 9 -70 31 -101 37 -7 2 -19 6 -27 9 -75 31 -376 84 -520 93 -106 6 -210 10
-213 8z m313 -349 c69 -9 142 -20 163 -26 20 -5 41 -7 46 -4 5 3 11 1 13 -4 1
-5 17 -11 35 -14 17 -3 37 -8 43 -12 5 -3 23 -9 38 -11 77 -14 374 -142 464
-202 21 -13 42 -21 49 -16 7 4 10 3 6 -2 -3 -5 11 -21 31 -34 32 -21 163 -116
200 -145 10 -8 -61 -85 -302 -325 -173 -173 -312 -318 -309 -322 2 -5 1 -7 -4
-6 -13 4 -83 -64 -77 -74 3 -5 1 -7 -4 -6 -13 4 -242 -224 -236 -234 3 -5 2
-7 -3 -6 -14 5 -83 -64 -76 -75 3 -6 2 -7 -3 -4 -6 3 -32 -17 -59 -44 -27 -27
-50 -47 -52 -45 -4 3 34 124 125 401 27 83 47 152 45 155 -2 2 -51 5 -108 5
l-105 1 -14 -41 c-16 -42 -112 -339 -216 -665 -34 -107 -71 -204 -81 -216 -11
-11 -17 -24 -14 -27 3 -4 2 -5 -2 -2 -3 3 -30 -18 -59 -47 -44 -43 -51 -55
-42 -67 10 -13 10 -14 -2 -4 -11 10 -25 1 -76 -49 -35 -34 -60 -66 -57 -71 3
-6 2 -7 -4 -4 -12 8 -109 -92 -105 -107 2 -6 0 -8 -4 -3 -10 9 -55 -33 -48
-45 3 -5 2 -7 -3 -6 -14 5 -83 -64 -76 -75 3 -6 2 -7 -4 -4 -5 3 -32 -17 -60
-46 -28 -29 -61 -62 -74 -74 l-24 -22 3 37 4 37 -351 175 c-193 96 -351 177
-351 180 0 3 157 84 348 180 l347 175 3 143 c1 78 -1 142 -5 142 -5 0 -58 -28
-118 -61 -61 -34 -139 -77 -175 -97 -36 -19 -146 -80 -245 -135 -201 -111
-227 -126 -337 -186 -43 -24 -81 -47 -84 -53 -4 -6 -7 -56 -8 -111 -1 -90 1
-101 19 -112 16 -10 454 -252 675 -373 141 -77 142 -78 125 -92 -8 -7 -12 -17
-8 -23 3 -5 2 -7 -4 -4 -12 7 -159 -142 -155 -157 2 -6 0 -8 -4 -3 -10 10
-244 -224 -237 -238 4 -5 2 -7 -2 -2 -11 9 -166 -144 -158 -156 3 -6 2 -7 -3
-4 -6 3 -40 -25 -77 -63 l-68 -68 -28 26 c-15 15 -27 29 -27 32 1 7 -57 84
-66 88 -5 2 -8 8 -8 13 0 5 -18 35 -39 67 -22 31 -45 69 -52 84 -6 15 -16 25
-22 21 -6 -3 -7 -1 -3 5 7 11 -19 60 -39 74 -5 4 -7 8 -2 8 4 0 -1 17 -11 37
-11 21 -35 79 -54 128 -20 50 -39 99 -43 110 -5 11 -9 25 -10 30 -2 6 -10 35
-19 65 -10 30 -20 66 -22 80 -3 14 -10 45 -16 70 -30 133 -45 299 -42 475 4
182 7 216 34 360 11 58 59 248 75 293 2 7 5 16 6 20 12 49 130 298 176 370 18
29 34 58 36 64 1 6 12 22 25 36 12 14 20 27 18 29 -2 2 6 14 18 27 11 12 30
35 41 51 11 16 25 33 30 39 6 6 31 36 56 66 118 139 267 272 424 377 124 82
141 93 152 93 6 0 13 3 15 8 5 12 181 95 272 128 59 22 259 82 293 88 15 3 39
7 53 10 88 18 168 28 255 33 55 3 101 6 102 7 7 6 231 -6 333 -19z m1426 -815
c-1 -3 30 -48 67 -101 37 -53 67 -100 67 -103 0 -4 11 -24 25 -46 26 -41 79
-145 109 -211 9 -20 33 -89 55 -153 21 -63 40 -114 42 -111 2 2 4 -6 5 -18 0
-12 9 -58 18 -102 10 -44 20 -96 23 -115 2 -19 6 -42 9 -50 9 -25 15 -148 15
-305 -1 -157 -4 -212 -21 -309 -6 -32 -8 -61 -5 -64 2 -3 1 -10 -4 -16 -5 -6
-12 -27 -15 -46 -3 -19 -11 -53 -17 -75 -6 -22 -12 -50 -13 -62 0 -13 -3 -23
-6 -23 -3 0 -12 -21 -20 -47 -20 -71 -53 -151 -118 -293 -9 -19 -31 -61 -50
-93 -18 -31 -30 -62 -26 -69 4 -6 3 -8 -3 -5 -6 4 -34 -31 -64 -76 -29 -45
-60 -87 -68 -93 -8 -6 -11 -16 -7 -23 4 -6 2 -10 -4 -9 -7 2 -17 -5 -23 -16
-16 -25 -63 -76 -155 -169 -73 -74 -112 -109 -192 -175 -33 -27 -176 -125
-245 -167 -48 -30 -234 -119 -300 -144 -33 -13 -69 -27 -80 -31 -44 -18 -182
-57 -235 -66 -14 -3 -32 -7 -40 -9 -8 -3 -33 -7 -55 -10 -22 -4 -51 -8 -65
-11 -64 -10 -185 -18 -290 -19 -65 0 -118 -4 -122 -10 -5 -7 -8 -6 -8 1 0 6
-23 11 -52 12 -29 1 -64 4 -78 7 -14 2 -41 7 -60 9 -19 3 -44 7 -55 10 -11 2
-40 7 -65 11 -74 11 -278 70 -345 100 -126 55 -178 74 -188 68 -5 -3 -7 -2 -4
4 3 5 -22 25 -56 43 -60 32 -217 128 -227 140 -23 24 -82 60 -92 54 -6 -4 -8
-3 -4 4 3 6 -3 17 -15 26 -21 14 -5 31 490 526 281 281 511 509 511 506 0 -3
-20 -68 -45 -144 -110 -338 -125 -386 -125 -394 0 -4 49 -7 109 -7 l110 1 34
107 c19 58 72 221 117 361 45 140 94 291 108 335 26 79 27 81 159 213 73 73
133 138 133 144 0 6 3 9 6 6 10 -10 165 151 158 164 -4 6 -3 8 4 4 6 -3 69 52
140 124 71 71 131 130 133 130 2 0 4 -29 5 -65 0 -36 3 -67 5 -69 4 -4 167
-82 294 -141 39 -18 140 -66 225 -107 85 -41 170 -81 188 -89 17 -7 32 -16 32
-20 0 -5 -72 -41 -545 -270 -104 -50 -192 -93 -194 -95 -3 -3 -5 -65 -5 -139
-1 -105 2 -135 12 -135 7 0 36 13 65 29 29 15 102 54 162 86 61 32 137 72 170
90 33 18 123 65 200 105 158 82 335 175 380 200 l30 17 0 107 0 108 -60 32
c-33 18 -123 65 -200 106 -77 40 -180 94 -230 120 -338 179 -398 210 -406 210
-5 0 -12 7 -15 15 -4 10 75 96 244 264 138 137 248 252 244 255 -3 3 0 6 6 6
6 0 86 75 177 166 l165 165 33 -33 c18 -18 33 -35 33 -38z"/>
</g>
</svg>
